<svg width="21" height="21" viewBox="0 0 21 21" fill="none" xmlns="http://www.w3.org/2000/svg">
<path d="M17.4258 12.564H16.1758C16.01 12.564 15.851 12.6298 15.7338 12.747C15.6166 12.8642 15.5508 13.0232 15.5508 13.189V17.564H3.05078V5.06396H8.67578C8.84154 5.06396 9.00051 4.99812 9.11772 4.88091C9.23493 4.7637 9.30078 4.60473 9.30078 4.43896V3.18896C9.30078 3.0232 9.23493 2.86423 9.11772 2.74702C9.00051 2.62981 8.84154 2.56396 8.67578 2.56396H2.42578C1.9285 2.56396 1.45159 2.76151 1.09996 3.11314C0.748325 3.46477 0.550781 3.94168 0.550781 4.43896L0.550781 18.189C0.550781 18.6862 0.748325 19.1632 1.09996 19.5148C1.45159 19.8664 1.9285 20.064 2.42578 20.064H16.1758C16.6731 20.064 17.15 19.8664 17.5016 19.5148C17.8532 19.1632 18.0508 18.6862 18.0508 18.189V13.189C18.0508 13.0232 17.9849 12.8642 17.8677 12.747C17.7505 12.6298 17.5915 12.564 17.4258 12.564ZM19.6133 0.0639648H14.6133C13.7785 0.0639648 13.3613 1.07607 13.9492 1.66553L15.3449 3.06123L5.82422 12.5784C5.73682 12.6655 5.66747 12.769 5.62015 12.883C5.57284 12.9969 5.54848 13.1191 5.54848 13.2425C5.54848 13.3659 5.57284 13.488 5.62015 13.602C5.66747 13.716 5.73682 13.8194 5.82422 13.9065L6.70977 14.7905C6.79686 14.8779 6.90036 14.9473 7.01431 14.9946C7.12827 15.0419 7.25044 15.0663 7.37383 15.0663C7.49722 15.0663 7.61939 15.0419 7.73335 14.9946C7.8473 14.9473 7.95079 14.8779 8.03789 14.7905L17.5539 5.27178L18.9492 6.66553C19.5352 7.25146 20.5508 6.84131 20.5508 6.00146V1.00146C20.5508 0.752824 20.452 0.514368 20.2762 0.338552C20.1004 0.162737 19.8619 0.0639648 19.6133 0.0639648V0.0639648Z" fill="#555555"/>
</svg>
